<svg xmlns="http://www.w3.org/2000/svg" width="880" height="970" viewBox="0 0 880 970" font-family="'Times New Roman', Times, serif">
<defs><marker id="arrow-ink" viewBox="0 0 10 10" refX="9" refY="5" markerWidth="8" markerHeight="8" orient="auto-start-reverse"><path d="M0,1 L9,5 L0,9 z" fill="#111111"/></marker><marker id="arrow-grey" viewBox="0 0 10 10" refX="9" refY="5" markerWidth="8" markerHeight="8" orient="auto-start-reverse"><path d="M0,1 L9,5 L0,9 z" fill="#8a8f96"/></marker><marker id="arrow-accent" viewBox="0 0 10 10" refX="9" refY="5" markerWidth="8" markerHeight="8" orient="auto-start-reverse"><path d="M0,1 L9,5 L0,9 z" fill="#a3261d"/></marker></defs>
<rect width="880" height="970" fill="white"/>
<rect x="235.0" y="15.0" width="250" height="58" rx="29.0" fill="white" stroke="#111111" stroke-width="1.7"/>
<text x="360" y="28.0" font-size="11" text-anchor="middle" fill="#8a8f96">S1</text>
<text x="360" y="45.0" font-size="16" text-anchor="middle" fill="#111111">START</text>
<text x="360" y="63.0" font-size="16" text-anchor="middle" fill="#111111">InsertAtEnd(Head, New)</text>
<polygon points="360,104.0 460.0,150 360,196.0 260.0,150" fill="white" stroke="#111111" stroke-width="1.7"/>
<text x="360" y="136" font-size="11" text-anchor="middle" fill="#8a8f96">S2</text>
<text x="360" y="160" font-size="16" text-anchor="middle" fill="#111111">New = Λ ?</text>
<rect x="564.0" y="121.0" width="236" height="58" rx="29.0" fill="white" stroke="#111111" stroke-width="1.7"/>
<text x="682" y="134.0" font-size="11" text-anchor="middle" fill="#8a8f96">S3</text>
<text x="682" y="151.0" font-size="16" text-anchor="middle" fill="#111111">RETURN false</text>
<text x="682" y="169.0" font-size="16" text-anchor="middle" fill="#111111" font-style="italic">nothing to insert</text>
<polygon points="360,224.0 460.0,270 360,316.0 260.0,270" fill="white" stroke="#111111" stroke-width="1.7"/>
<text x="360" y="256" font-size="11" text-anchor="middle" fill="#8a8f96">S4</text>
<text x="360" y="280" font-size="16" text-anchor="middle" fill="#111111">Head = Λ ?</text>
<rect x="587.0" y="247.0" width="190" height="46" fill="white" stroke="#111111" stroke-width="1.7"/>
<text x="682" y="259.0" font-size="11" text-anchor="middle" fill="#8a8f96">S5</text>
<text x="682" y="283" font-size="16" text-anchor="middle" fill="#111111">Link(New) ← Λ</text>
<rect x="587.0" y="325.0" width="190" height="46" fill="white" stroke="#111111" stroke-width="1.7"/>
<text x="682" y="337.0" font-size="11" text-anchor="middle" fill="#8a8f96">S6</text>
<text x="682" y="361" font-size="16" text-anchor="middle" fill="#111111">Head ← New</text>
<rect x="587.0" y="401.0" width="190" height="58" rx="29.0" fill="white" stroke="#111111" stroke-width="1.7"/>
<text x="682" y="414.0" font-size="11" text-anchor="middle" fill="#8a8f96">S7</text>
<text x="682" y="440.0" font-size="16" text-anchor="middle" fill="#111111">RETURN true</text>
<rect x="265.0" y="365.0" width="190" height="46" fill="white" stroke="#111111" stroke-width="1.7"/>
<text x="360" y="377.0" font-size="11" text-anchor="middle" fill="#8a8f96">S8</text>
<text x="360" y="401" font-size="16" text-anchor="middle" fill="#111111">Temp ← Head</text>
<polygon points="360,486.0 460.0,532 360,578.0 260.0,532" fill="white" stroke="#111111" stroke-width="1.7"/>
<text x="360" y="518" font-size="11" text-anchor="middle" fill="#8a8f96">S9</text>
<text x="360" y="542" font-size="16" text-anchor="middle" fill="#111111">Temp = New ?</text>
<rect x="564.0" y="503.0" width="236" height="58" rx="29.0" fill="white" stroke="#111111" stroke-width="1.7"/>
<text x="682" y="516.0" font-size="11" text-anchor="middle" fill="#8a8f96">S10</text>
<text x="682" y="533.0" font-size="16" text-anchor="middle" fill="#111111">RETURN false</text>
<text x="682" y="551.0" font-size="16" text-anchor="middle" fill="#111111" font-style="italic">New already in list</text>
<polygon points="360,618.0 475.0,664 360,710.0 245.0,664" fill="white" stroke="#111111" stroke-width="1.7"/>
<text x="360" y="650" font-size="11" text-anchor="middle" fill="#8a8f96">S11</text>
<text x="360" y="674" font-size="16" text-anchor="middle" fill="#111111">Link(Temp) = Λ ?</text>
<rect x="12.0" y="641.0" width="184" height="46" fill="white" stroke="#111111" stroke-width="1.7"/>
<text x="104" y="653.0" font-size="11" text-anchor="middle" fill="#8a8f96">S12</text>
<text x="104" y="677" font-size="16" text-anchor="middle" fill="#111111">Temp ← Link(Temp)</text>
<rect x="265.0" y="749.0" width="190" height="46" fill="white" stroke="#111111" stroke-width="1.7"/>
<text x="360" y="761.0" font-size="11" text-anchor="middle" fill="#8a8f96">S13</text>
<text x="360" y="785" font-size="16" text-anchor="middle" fill="#111111">Link(New) ← Λ</text>
<rect x="265.0" y="823.0" width="190" height="46" fill="white" stroke="#111111" stroke-width="1.7"/>
<text x="360" y="835.0" font-size="11" text-anchor="middle" fill="#8a8f96">S14</text>
<text x="360" y="859" font-size="16" text-anchor="middle" fill="#111111">Link(Temp) ← New</text>
<rect x="265.0" y="901.0" width="190" height="58" rx="29.0" fill="white" stroke="#111111" stroke-width="1.7"/>
<text x="360" y="914.0" font-size="11" text-anchor="middle" fill="#8a8f96">S15</text>
<text x="360" y="940.0" font-size="16" text-anchor="middle" fill="#111111">RETURN true</text>
<line x1="360" y1="73" x2="360" y2="102" stroke="#111111" stroke-width="1.6" marker-end="url(#arrow-ink)"/>
<line x1="460" y1="150" x2="562" y2="150" stroke="#111111" stroke-width="1.6" marker-end="url(#arrow-ink)"/>
<text x="468" y="142" font-size="15" text-anchor="start" fill="#111111" font-style="italic">Yes</text>
<line x1="360" y1="196" x2="360" y2="222" stroke="#111111" stroke-width="1.6" marker-end="url(#arrow-ink)"/>
<text x="368" y="214" font-size="15" text-anchor="start" fill="#111111" font-style="italic">No</text>
<line x1="460" y1="270" x2="585" y2="270" stroke="#111111" stroke-width="1.6" marker-end="url(#arrow-ink)"/>
<text x="468" y="262" font-size="15" text-anchor="start" fill="#111111" font-style="italic">Yes</text>
<line x1="682" y1="293" x2="682" y2="323" stroke="#111111" stroke-width="1.6" marker-end="url(#arrow-ink)"/>
<line x1="682" y1="371" x2="682" y2="399" stroke="#111111" stroke-width="1.6" marker-end="url(#arrow-ink)"/>
<line x1="360" y1="316" x2="360" y2="363" stroke="#111111" stroke-width="1.6" marker-end="url(#arrow-ink)"/>
<text x="368" y="344" font-size="15" text-anchor="start" fill="#111111" font-style="italic">No</text>
<line x1="360" y1="411" x2="360" y2="452" stroke="#111111" stroke-width="1.6"/>
<circle cx="360" cy="456" r="5" fill="#111111"/>
<line x1="360" y1="461" x2="360" y2="484" stroke="#111111" stroke-width="1.6" marker-end="url(#arrow-ink)"/>
<line x1="460" y1="532" x2="562" y2="532" stroke="#111111" stroke-width="1.6" marker-end="url(#arrow-ink)"/>
<text x="468" y="524" font-size="15" text-anchor="start" fill="#111111" font-style="italic">Yes</text>
<line x1="360" y1="578" x2="360" y2="616" stroke="#111111" stroke-width="1.6" marker-end="url(#arrow-ink)"/>
<text x="368" y="604" font-size="15" text-anchor="start" fill="#111111" font-style="italic">No</text>
<line x1="245" y1="664" x2="198" y2="664" stroke="#111111" stroke-width="1.6" marker-end="url(#arrow-ink)"/>
<text x="210" y="656" font-size="15" text-anchor="start" fill="#111111" font-style="italic">No</text>
<path d="M104,641 V456 H353" fill="none" stroke="#111111" stroke-width="1.6" marker-end="url(#arrow-ink)"/>
<line x1="360" y1="710" x2="360" y2="747" stroke="#111111" stroke-width="1.6" marker-end="url(#arrow-ink)"/>
<text x="368" y="734" font-size="15" text-anchor="start" fill="#111111" font-style="italic">Yes</text>
<line x1="360" y1="795" x2="360" y2="821" stroke="#111111" stroke-width="1.6" marker-end="url(#arrow-ink)"/>
<line x1="360" y1="869" x2="360" y2="899" stroke="#111111" stroke-width="1.6" marker-end="url(#arrow-ink)"/>
<rect x="560" y="640" width="300" height="250" fill="#f6f6f4" stroke="#c8ccd2" stroke-width="1"/>
<text x="576" y="666" font-size="15" text-anchor="start" fill="#111111" font-weight="bold">Symbols (ISO 5807)</text>
<rect x="576" y="684" width="70" height="30" rx="15" fill="white" stroke="#111111" stroke-width="1.5"/>
<text x="660" y="704" font-size="14" text-anchor="start" fill="#111111">Terminal: start or end</text>
<rect x="576" y="730" width="70" height="30" fill="white" stroke="#111111" stroke-width="1.5"/>
<text x="660" y="750" font-size="14" text-anchor="start" fill="#111111">Process: an assignment</text>
<polygon points="611,774 646,792 611,810 576,792" fill="white" stroke="#111111" stroke-width="1.5"/>
<text x="660" y="797" font-size="14" text-anchor="start" fill="#111111">Decision: a Yes/No test</text>
<line x1="576" y1="834" x2="644" y2="834" stroke="#111111" stroke-width="1.5" marker-end="url(#arrow-ink)"/>
<text x="660" y="839" font-size="14" text-anchor="start" fill="#111111">Flow line</text>
<circle cx="611" cy="868" r="5" fill="#111111"/>
<text x="660" y="873" font-size="14" text-anchor="start" fill="#111111">Junction: loop re-entry</text>
</svg>
